<svg xmlns="http://www.w3.org/2000/svg"
shape-rendering="geometricPrecision"
width="4000" height="4000" viewBox="0 0 1024 1024">
  <metadata>null</metadata>

<path d="
M 46.955 453.587
C 47.554 451.161 48.25 448.921 49.665 446.821
C 53.142 441.662 59.363 438.812 64.691 436.003
C 68.116 434.198 71.411 432.191 74.747 430.266
C 74.832 429.827 73.861 428.858 73.608 428.483
C 72.534 426.896 71.601 425.173 71.004 423.345
C 69.157 417.683 70.511 410.942 73.624 405.989
C 80.397 395.213 96.094 393.346 105.405 401.842
C 109.929 405.969 111.258 410.699 112.419 416.484
C 116.499 416.183 120.774 416.71 124.887 416.656
C 137.429 416.492 149.967 416.422 162.511 416.393
C 166.925 416.383 171.337 416.372 175.751 416.408
C 176.843 416.417 179.841 416.924 180.69 416.302
C 188.29 401.277 211.435 403.292 218.344 417.752
C 219.972 421.158 220.628 424.924 220.306 428.681
C 220.192 430.015 218.867 433.341 219.539 434.383
C 223.178 436.076 226.674 438.317 230.177 440.287
C 235.743 443.417 241.545 446.315 244.497 452.286
C 246.369 456.071 246.182 460.399 246.196 464.504
C 246.216 470.504 246.234 476.504 246.244 482.504
C 246.279 503.17 246.22 523.836 246.22 544.503
C 246.22 549.485 246.228 554.468 246.191 559.451
C 246.153 564.531 246.141 569.336 243.709 573.94
C 242.072 577.038 239.293 578.901 236.367 580.662
C 232.172 583.188 227.997 585.627 223.674 587.932
C 221.918 588.868 219.746 589.698 218.256 591.032
C 220.523 596.643 221.226 602.727 218.742 608.427
C 213.383 620.725 196.578 625.241 186.062 616.566
C 183.326 614.309 181.711 611.162 180.478 607.915
C 179.634 607.2 176.88 607.637 175.736 607.644
C 171.489 607.669 167.244 607.725 162.997 607.738
C 151.998 607.773 140.998 607.769 129.998 607.79
C 124.208 607.801 118.314 607.503 112.539 607.947
C 111.601 609.802 111.566 612.045 110.716 613.977
C 108.366 619.317 104.172 623.321 98.735 625.433
C 86.159 630.318 72.096 621.234 70.412 608.086
C 69.679 602.36 71.831 597.82 74.481 592.961
C 71.775 591.646 69.258 589.847 66.573 588.459
C 59.524 584.817 52.15 581.211 48.441 573.813
C 46.306 569.555 46.58 564.625 46.576 559.998
C 46.571 552.998 46.594 545.999 46.603 539
C 46.626 520.333 46.606 501.667 46.593 483
C 46.588 477 46.588 471 46.591 464.999
C 46.593 461.23 46.316 457.318 46.955 453.587 Z
M 55.934 456.098
C 55.503 458.985 55.789 462.086 55.79 465.001
C 55.79 470.667 55.794 476.333 55.795 481.999
C 55.797 499.664 55.981 517.329 55.789 534.994
C 55.706 542.664 55.752 550.334 55.736 558.005
C 55.728 561.482 54.948 566.117 56.288 569.391
C 57.268 571.783 59.4 573.513 61.456 574.95
C 65.661 577.887 70.321 580.008 74.719 582.625
C 76.106 583.451 77.539 584.227 78.864 585.153
C 79.651 585.702 80.495 586.6 81.472 586.733
C 83.697 586.169 85.411 584.581 87.754 584.251
C 87.407 574.946 86.807 565.275 87.53 555.967
C 82.281 552.109 75.489 549.758 69.724 546.749
C 67.042 545.348 63.895 543.948 62.07 541.414
C 58.732 536.78 58.303 530.211 58.198 524.729
C 58.032 516.058 58.027 507.361 58.206 498.69
C 58.309 493.722 58.501 487.612 61.768 483.571
C 63.895 480.938 67.415 479.481 70.362 477.98
C 76.026 475.096 81.84 472.428 87.407 469.371
C 87.625 467.482 87.328 465.412 87.35 463.497
C 87.4 458.997 87.408 454.497 87.402 449.996
C 87.398 446.509 88.111 442.053 87.302 438.677
C 85.676 438.313 83.273 437.1 81.595 437.447
C 80.762 437.62 80.02 438.387 79.298 438.815
C 77.677 439.777 75.993 440.627 74.326 441.503
C 67.493 445.094 58.146 447.962 55.934 456.098 Z
M 67.481 497.628
C 66.732 505.938 67.339 514.553 67.39 522.892
C 67.412 526.37 66.816 531.41 68.618 534.537
C 69.849 536.672 72.318 537.557 74.377 538.652
C 79.04 541.132 83.77 543.49 88.436 545.966
C 95.719 549.831 103.184 553.385 110.554 557.085
C 120.967 562.313 131.105 568.091 141.443 573.465
C 150.87 578.365 160.184 583.683 169.871 588.053
C 172.346 589.169 174.835 590.157 177.401 591.039
C 177.885 591.205 179.197 591.967 179.62 591.659
C 180.893 589.111 182.174 586.533 184.192 584.47
C 189.091 579.463 196.739 577.775 203.453 579.265
C 205.629 579.748 207.708 580.568 209.666 581.625
C 210.592 582.124 211.763 583.395 212.833 583.414
C 214.629 582.669 216.292 581.331 217.992 580.369
C 221.429 578.424 224.928 576.578 228.381 574.663
C 231.144 573.132 234.395 571.555 235.914 568.636
C 237.202 566.162 236.94 562.952 236.964 560.252
C 237.016 554.502 236.929 548.747 236.906 542.997
C 236.827 522.998 236.873 502.995 236.891 482.997
C 236.896 476.997 236.889 470.998 236.857 464.998
C 236.843 462.208 237.359 458.693 235.967 456.153
C 234.69 453.823 232.229 452.303 230.062 450.902
C 224.965 447.608 219.226 445.439 213.985 442.431
C 212.924 442.851 212.237 443.687 211.287 444.29
C 209.352 445.518 207.169 446.629 204.94 447.205
C 194.602 449.874 182.405 444.658 179.494 433.811
C 176.68 433.719 173.188 435.792 170.692 436.965
C 164.556 439.847 158.553 442.915 152.552 446.075
C 132.143 456.822 111.714 467.483 91.201 478.029
C 85.936 480.735 80.635 483.389 75.336 486.029
C 72.997 487.194 69.84 488.432 68.439 490.784
C 67.22 492.83 68.003 495.411 67.481 497.628 Z
M 79.854 415.061
C 78.649 420.185 81.266 425.602 85.718 428.271
C 90.44 431.102 98.024 430.146 101.133 425.333
C 101.92 424.114 102.525 422.813 102.87 421.402
C 103.353 419.421 103.543 417.153 102.979 415.168
C 102.136 412.198 100.555 409.447 97.953 407.692
C 90.965 402.978 81.744 407.02 79.854 415.061 Z
M 79.867 602.564
C 78.442 608.537 81.983 615.202 87.852 617.12
C 94.144 619.177 101.489 615.303 103.008 608.819
C 104.194 603.759 102.471 598.245 97.994 595.367
C 91.179 590.986 81.757 594.636 79.867 602.564 Z
M 96.835 438.421
C 96.887 447.11 96.579 455.856 96.962 464.534
C 97.82 464.707 99.754 463.238 100.51 462.81
C 103.425 461.158 106.47 459.717 109.448 458.182
C 121.688 451.87 133.918 445.488 146.077 439.021
C 151.924 435.912 157.726 432.688 163.684 429.796
C 165.692 428.821 167.727 427.82 169.818 427.032
C 170.519 426.768 171.242 426.571 171.946 426.315
C 171.96 426.31 172.904 425.91 172.846 425.88
C 171.683 425.26 169.282 425.749 168.006 425.775
C 164.319 425.851 160.588 425.785 156.91 426.035
C 145.885 426.783 134.558 426.088 123.501 426.142
C 120.503 426.156 117.503 426.193 114.505 426.171
C 113.32 426.163 111.488 425.756 110.441 426.29
C 107.924 432.353 103.456 436.911 96.835 438.421 Z
M 96.849 560.82
C 96.96 568.869 97.453 577.174 97.078 585.203
C 104.091 587.056 108.907 591.417 111.269 598.349
C 112.24 598.841 114.059 598.452 115.163 598.497
C 118.692 598.644 122.277 598.453 125.811 598.42
C 136.705 598.319 147.611 598.782 158.501 598.438
C 161.33 598.349 164.159 598.416 166.989 598.319
C 168.037 598.283 169.605 598.543 170.573 598.13
C 151.571 589.805 133.442 579.22 114.953 569.784
C 110.452 567.487 105.978 565.165 101.526 562.775
C 100.39 562.165 97.986 560.16 96.849 560.82 Z
M 187.482 426.125
C 187.41 427.883 187.77 429.861 188.452 431.48
C 193.185 442.723 210.313 439.709 210.89 427.546
C 211.269 419.558 202.77 412.889 195.055 415.753
C 192.204 416.811 190.032 418.942 188.611 421.59
C 187.892 422.928 187.544 424.612 187.482 426.125 Z
M 187.423 598.612
C 187.256 600.396 187.553 602.127 188.195 603.796
C 189.578 607.394 192.459 610.424 196.243 611.47
C 203.085 613.362 210.36 608.405 210.91 601.313
C 211.308 596.163 208.58 591.091 203.78 589.004
C 196.629 585.896 188.152 590.822 187.423 598.612 Z"
opacity="1" fill="rgb(9,68,71)" fill-rule="evenodd" />
<path d="
M 81.313 509.432
C 83.742 507.492 86.989 506.151 89.73 504.683
C 95.221 501.743 100.778 498.929 106.299 496.045
C 111.287 493.44 116.279 490.79 121.203 488.062
C 124.345 486.322 127.294 484.115 130.763 483.108
C 131.173 484.234 130.857 485.773 130.932 486.976
C 131.078 489.282 131.25 491.592 131.337 493.905
C 129.541 495.566 126.124 496.488 123.945 497.698
C 118.281 500.843 112.593 503.948 106.847 506.943
C 104.945 507.934 102.913 508.796 101.092 509.923
C 100.73 510.147 99.188 510.941 99.272 511.216
C 101.622 513.103 105.198 514.118 107.906 515.48
C 113.6 518.343 119.225 521.373 124.8 524.462
C 126.855 525.6 129.631 526.42 131.37 528.005
C 130.878 531.382 131.384 535.019 130.685 538.341
C 129.961 538.598 128.191 537.207 127.498 536.832
C 124.53 535.226 121.539 533.665 118.556 532.087
C 106.53 525.728 94.385 519.347 81.938 513.9
C 81.237 512.71 81.219 511.081 81.06 509.732
C 81.145 509.632 81.229 509.532 81.313 509.432 Z"
opacity="1" fill="rgb(7,68,72)" fill-rule="evenodd" />
<path d="
M 131.435 557.153
C 139.168 535.093 147.326 513.172 155.347 491.214
C 158.934 481.395 163.335 471.593 166.208 461.546
C 169.618 461.803 173.429 462.367 176.835 461.936
C 176.308 463.483 175.434 464.951 174.878 466.537
C 164.2 496.99 152.573 527.157 142.359 557.769
C 138.675 557.942 134.949 557.544 131.257 557.666
C 131.316 557.495 131.376 557.324 131.435 557.153 Z"
opacity="1" fill="rgb(9,65,67)" fill-rule="evenodd" />
<path d="
M 176.342 486.289
C 180.489 487.765 184.248 490.379 188.13 492.429
C 194.876 495.994 201.52 499.751 208.265 503.321
C 212.437 505.529 216.575 507.808 220.795 509.925
C 222.413 510.737 224.814 511.442 226.149 512.636
C 226.226 514.096 226.313 515.55 226.319 517.013
C 225.41 517.893 223.311 518.26 222.146 518.846
C 218.606 520.627 215.087 522.431 211.568 524.256
C 203.73 528.32 195.867 532.353 187.987 536.335
C 184.183 538.258 180.405 540.903 176.443 542.427
C 176.048 538.822 176.506 535.027 176.328 531.391
C 178.321 529.986 180.864 529.174 183.014 527.995
C 188.865 524.789 194.769 521.659 200.725 518.651
C 202.635 517.686 204.602 516.809 206.483 515.794
C 206.985 515.523 208.48 515.138 208.45 514.551
C 197.687 508.894 186.592 503.338 176.166 497.087
C 175.583 493.774 176.283 489.676 176.342 486.289 Z"
opacity="1" fill="rgb(9,68,71)" fill-rule="evenodd" />
<path d="
M 274.352 547.594
C 274.339 547.432 274.327 547.271 274.315 547.11
C 275.172 546.951 278.261 546.182 278.874 546.935
C 280.923 556.329 283.92 565.639 286.485 574.911
C 287.569 578.828 289.054 582.975 289.522 587.005
C 290.291 586.705 290.244 585.14 290.391 584.459
C 290.936 581.931 291.631 579.445 292.362 576.967
C 294.235 570.616 296.457 564.303 298.088 557.888
C 298.698 555.49 299.474 553.139 300.119 550.751
C 300.46 549.488 300.674 547.985 301.448 546.917
C 302.868 546.843 304.321 546.886 305.729 546.735
C 307.137 550.361 307.811 554.26 308.946 557.974
C 310.738 563.842 312.52 569.711 314.24 575.601
C 314.978 578.129 315.631 580.673 316.332 583.21
C 316.677 584.462 316.767 585.996 317.471 587.106
C 319.15 578.216 321.955 569.354 324.473 560.663
C 325.755 556.238 326.481 551.103 328.406 546.925
C 329.838 546.888 331.236 546.844 332.668 546.913
C 332.955 547.559 332.178 549.381 331.975 550.06
C 331.246 552.5 330.467 554.983 329.874 557.46
C 327.891 565.746 325.238 574.014 322.793 582.182
C 322.057 584.639 321.381 587.111 320.654 589.571
C 320.374 590.517 320.317 591.669 319.781 592.509
C 318.239 592.701 316.605 592.651 315.069 592.431
C 313.584 588.5 312.807 584.206 311.6 580.176
C 309.976 574.757 308.203 569.366 306.664 563.92
C 305.936 561.34 305.145 558.781 304.406 556.205
C 304.101 555.143 304.098 553.57 303.207 552.862
C 302.835 557.004 301.2 561.094 299.98 565.058
C 298.321 570.445 296.781 575.878 295.207 581.29
C 294.436 583.939 293.729 586.617 292.882 589.242
C 292.599 590.119 292.496 591.645 291.952 592.356
C 290.334 592.452 288.699 592.295 287.083 592.366
C 286.269 590.886 286.091 588.792 285.634 587.161
C 284.764 584.051 283.936 580.936 283.091 577.819
C 280.355 567.724 277.543 557.554 274.352 547.594 Z"
opacity="1" fill="rgb(4,58,56)" fill-rule="evenodd" />
<path d="
M 278.868 446.737
C 281.606 446.537 284.32 446.539 287.067 446.6
C 287.987 446.62 289.286 446.367 290.07 446.818
C 291.805 449.88 294.176 452.723 296.182 455.622
C 301.069 462.687 306.294 469.504 311.233 476.53
C 313.236 479.38 315.278 482.194 317.193 485.106
C 318.021 486.367 318.818 488.51 320.01 489.415
C 320.606 484.968 319.838 480 319.831 475.501
C 319.817 465.936 320.001 456.358 319.831 446.794
C 323.499 446.51 327.403 446.527 331.076 446.766
C 331.09 467.099 330.94 487.463 331.136 507.8
C 327.664 508.027 323.86 507.983 320.397 507.709
C 319.13 506.856 318.245 504.846 317.388 503.592
C 315.329 500.583 313.223 497.606 311.155 494.602
C 306.071 487.217 300.765 479.978 295.478 472.737
C 293.484 470.005 291.897 466.895 289.708 464.326
C 290.602 475.147 290.137 486.147 290.122 496.996
C 290.116 500.473 289.785 504.128 290.053 507.578
C 289.069 507.918 287.632 507.642 286.586 507.643
C 284.054 507.648 281.33 507.932 278.822 507.656
C 279.139 487.374 279.185 467.019 278.868 446.737 Z"
opacity="1" fill="rgb(13,70,67)" fill-rule="evenodd" />
<path d="
M 340.805 507.73
C 344.184 500.206 346.772 492.238 349.616 484.497
C 352.351 477.05 355.252 469.668 357.97 462.214
C 359.866 457.015 361.557 451.679 363.782 446.616
C 368.097 446.476 372.409 446.663 376.722 446.606
C 378.118 451.538 380.423 456.385 382.252 461.18
C 385.96 470.897 389.354 480.729 393.117 490.421
C 394.736 494.59 396.225 498.818 397.87 502.977
C 398.478 504.514 399.488 506.184 399.832 507.784
C 396.73 507.631 393.603 507.824 390.496 507.736
C 389.48 507.707 388.261 507.972 387.293 507.666
C 385.97 503.374 383.582 499.056 382.717 494.673
C 380.491 494.034 377.326 494.583 375.002 494.576
C 369.313 494.558 363.553 494.353 357.873 494.68
C 356.639 497.817 355.612 501.04 354.348 504.165
C 353.915 505.234 353.6 506.822 352.848 507.694
C 350.455 507.959 347.91 507.719 345.501 507.702
C 343.987 507.691 342.29 507.979 340.805 507.73 Z
M 361.417 483.543
C 361.266 484.11 361.112 484.674 360.971 485.244
C 367.144 485.253 373.323 485.314 379.494 485.293
C 379.345 483.561 378.09 481.536 377.516 479.885
C 376.044 475.643 374.516 471.422 373.108 467.159
C 372.462 465.205 371.798 463.256 371.083 461.327
C 370.781 460.51 370.805 459.555 370.395 458.773
C 370.285 458.561 370.192 458.035 369.999 458.176
C 369.697 458.396 369.816 458.9 369.725 459.263
C 369.142 462.526 367.514 465.884 366.451 469.039
C 364.84 473.823 363.487 478.943 361.417 483.543 Z"
opacity="1" fill="rgb(11,68,65)" fill-rule="evenodd" />
<path d="
M 345.422 548.1
C 345.447 547.92 345.473 547.74 345.498 547.559
C 347.341 546.144 351.241 546.892 353.508 546.909
C 360.163 546.958 366.83 546.958 373.476 547.007
C 373.544 548.133 373.333 550.1 373.711 551.113
C 368.188 551.227 362.558 550.936 357.004 550.947
C 354.945 550.951 351.889 550.379 350.094 551.48
C 349.689 556.682 349.853 562.104 350.021 567.311
C 357.144 567.676 364.301 567.07 371.42 567.353
C 371.361 568.683 371.402 570.008 371.384 571.341
C 366.16 570.919 360.74 571.234 355.501 571.299
C 354.12 571.316 351.079 570.735 350.042 571.657
C 350.387 577.024 350.754 583.157 350.031 588.487
C 350.661 588.736 351.896 588.471 352.59 588.468
C 354.161 588.462 355.739 588.544 357.307 588.478
C 360.364 588.349 363.447 588.509 366.506 588.504
C 369.022 588.499 371.664 588.227 374.153 588.665
C 374.162 589.913 373.932 591.474 374.193 592.671
C 368.44 592.601 362.679 592.465 356.923 592.48
C 353.179 592.49 349.275 592.799 345.553 592.409
C 344.909 585.546 345.485 578.396 345.437 571.497
C 345.383 563.803 344.731 555.76 345.422 548.1 Z"
opacity="1" fill="rgb(9,61,59)" fill-rule="evenodd" />
<path d="
M 387.455 548.097
C 387.501 547.552 387.446 547.878 387.704 547.138
C 391.846 546.942 396.001 547.138 400.149 547.126
C 403.746 547.116 407.604 546.871 411.022 548.174
C 417.306 550.571 419.987 557.807 417.011 563.854
C 415.603 566.713 412.664 567.026 410.768 569.151
C 420.305 570.84 422.464 583.371 415.55 589.479
C 410.262 594.15 401.13 592.529 394.673 592.471
C 392.534 592.451 389.516 593.077 387.479 592.464
C 387.162 583.498 387.434 574.472 387.434 565.497
C 387.433 559.761 386.986 553.809 387.455 548.097 Z
M 391.92 551.407
C 391.741 556.633 392.073 561.902 391.784 567.119
C 394.996 567.218 398.256 567.11 401.473 567.089
C 404.734 567.069 407.904 567.18 410.706 565.246
C 414.43 562.677 414.771 555.888 411.153 553.049
C 407.33 550.05 402.046 550.867 397.481 550.926
C 395.838 550.947 393.358 550.547 391.92 551.407 Z
M 391.847 570.928
C 391.794 576.814 391.951 582.749 391.762 588.633
C 395.477 588.489 399.208 588.548 402.928 588.57
C 405.738 588.588 408.726 588.674 411.271 587.267
C 416.202 584.539 416.281 575.718 411.588 572.759
C 408.626 570.892 405.382 570.902 402.004 570.852
C 398.62 570.802 395.227 570.713 391.847 570.928 Z"
opacity="1" fill="rgb(7,60,59)" fill-rule="evenodd" />
<path d="
M 403.919 472.601
C 404.739 465.891 407.558 459.477 412.289 454.606
C 421.796 444.82 438.201 443.015 449.768 450.128
C 460.628 456.808 465.348 469.946 463.792 482.223
C 462.835 489.774 459.381 496.954 453.469 501.866
C 443.215 510.386 427.116 510.915 416.215 503.243
C 406.502 496.407 402.521 484.042 403.919 472.601 Z
M 415.412 474.104
C 414.572 480.832 416.449 489.218 421.724 493.831
C 428.817 500.034 440.701 499.974 447.238 492.932
C 450.17 489.773 451.741 485.605 452.321 481.394
C 453.414 473.46 451.129 464.049 444.291 459.191
C 437.395 454.291 426.76 455.519 420.94 461.466
C 417.658 464.821 415.984 469.527 415.412 474.104 Z"
opacity="1" fill="rgb(10,68,66)" fill-rule="evenodd" />
<path d="
M 455.173 547.227
C 458.608 546.974 462.067 547.209 465.509 547.233
C 472.91 547.284 479.883 547.408 486.043 552.102
C 498.274 561.422 495.98 582.326 483.105 589.768
C 477.871 592.793 471.893 592.472 466.099 592.474
C 462.49 592.475 458.844 592.753 455.245 592.587
C 455.553 585.415 455.324 578.183 455.309 571.004
C 455.293 563.089 455.468 555.134 455.173 547.227 Z
M 459.781 551.327
C 459.418 563.752 460.282 576.237 459.761 588.656
C 467.365 588.931 476.13 589.622 482.66 585.071
C 492.058 578.521 491.685 561.043 482.399 554.654
C 475.914 550.193 467.307 550.756 459.781 551.327 Z"
opacity="1" fill="rgb(6,61,61)" fill-rule="evenodd" />
<path d="
M 477.329 446.741
C 481.657 446.249 486.341 446.279 490.682 446.669
C 491.426 449.706 493.435 452.851 494.745 455.707
C 497.57 461.869 500.304 468.073 503.262 474.174
C 504.694 477.128 505.917 480.175 507.284 483.158
C 507.708 484.085 507.964 485.381 508.626 486.137
C 509.331 485.318 509.451 483.982 509.894 483.004
C 511.111 480.32 512.421 477.675 513.624 474.981
C 517.799 465.636 521.298 455.551 526.339 446.642
C 529.405 446.265 532.631 446.503 535.721 446.514
C 536.81 446.518 538.627 446.234 539.513 446.893
C 539.417 459.914 539.712 472.972 539.718 486.003
C 539.72 491.003 539.713 496.003 539.734 501.003
C 539.743 503.185 539.488 505.559 539.756 507.717
C 537.155 507.69 534.552 507.717 531.95 507.694
C 531.038 507.686 529.63 508.033 528.816 507.648
C 529.027 497.27 528.7 486.88 528.824 476.5
C 528.858 473.675 528.834 470.842 528.936 468.019
C 528.978 466.842 529.424 465.418 528.796 464.342
C 527.032 469.905 524.157 475.154 521.724 480.444
C 518.529 487.385 515.321 494.418 511.697 501.143
C 510.035 501.792 506.499 501.411 504.726 501.203
C 500.626 493.061 496.898 484.679 493.137 476.375
C 491.413 472.568 490.27 467.674 487.786 464.324
C 487.944 474.719 488.166 485.1 488.196 495.498
C 488.205 498.333 488.211 501.167 488.22 504.002
C 488.224 505.005 488.55 506.645 488.088 507.553
C 484.849 507.573 480.534 508.469 477.418 507.604
C 476.647 487.362 477.435 466.996 477.329 446.741 Z"
opacity="1" fill="rgb(11,69,65)" fill-rule="evenodd" />
<path d="
M 508.106 547.175
C 513.551 546.857 519.053 547.114 524.511 547.122
C 528.315 547.127 532.278 546.787 536.062 547.159
C 535.993 548.478 536.077 549.902 536.111 551.227
C 534.02 551.52 531.627 551.113 529.503 551.104
C 523.964 551.083 518.385 550.952 512.854 551.22
C 512.064 552.473 512.434 554.558 512.43 556.002
C 512.421 559.777 512.567 563.587 512.505 567.349
C 517.325 567.186 522.183 567.395 527.009 567.399
C 529.227 567.401 531.97 566.878 534.123 567.369
C 534.26 568.261 534.646 570.604 534.112 571.348
C 531.318 571.027 528.318 571.277 525.5 571.278
C 521.301 571.279 517.077 571.153 512.885 571.365
C 512.019 572.581 512.458 574.918 512.45 576.377
C 512.428 580.354 511.997 584.764 512.731 588.684
C 515.752 588.301 518.963 588.554 522.007 588.554
C 526.919 588.556 531.844 588.461 536.751 588.632
C 536.799 589.599 536.292 591.89 536.756 592.678
C 527.31 592.685 517.715 593.033 508.284 592.644
C 508.189 577.497 507.88 562.32 508.106 547.175 Z"
opacity="1" fill="rgb(8,62,60)" fill-rule="evenodd" />
<path d="
M 545.307 547.529
C 545.796 546.519 548.883 546.698 549.867 547.167
C 552.878 556.628 556.877 565.991 560.5 575.249
C 561.864 578.734 562.991 582.346 564.524 585.756
C 564.945 586.692 564.973 587.788 565.489 588.665
C 567.469 580.015 571.708 571.461 574.96 563.202
C 576.992 558.042 578.458 552.272 581.12 547.404
C 582.454 546.388 584.394 547.102 585.939 546.875
C 585.517 548.812 584.501 550.637 583.748 552.462
C 582.041 556.6 580.358 560.765 578.74 564.938
C 576.28 571.282 573.729 577.599 571.293 583.951
C 570.214 586.766 569.289 590.009 567.748 592.598
C 566.146 592.9 564.393 592.693 562.775 592.616
C 556.175 577.945 551.904 562.206 545.307 547.529 Z"
opacity="1" fill="rgb(4,59,57)" fill-rule="evenodd" />
<path d="
M 556.354 446.894
C 559.088 446.828 561.821 446.76 564.559 446.772
C 565.225 446.775 566.914 446.476 567.337 446.964
C 567.717 460.957 567.402 475.009 567.404 489.007
C 567.405 493.173 567.389 497.339 567.389 501.505
C 567.389 503.365 566.997 505.783 567.454 507.564
C 567.103 507.981 565.089 507.662 564.504 507.667
C 561.739 507.69 558.964 507.695 556.2 507.658
C 555.897 487.523 556.337 467.369 556.09 447.232
C 556.178 447.119 556.266 447.007 556.354 446.894 Z"
opacity="1" fill="rgb(12,69,66)" fill-rule="evenodd" />
<path d="
M 597.304 547.263
C 600.764 546.635 604.505 547.115 608.012 547.138
C 613.76 547.174 619.511 547.041 625.257 547.127
C 625.443 547.796 625.738 550.665 625.388 551.21
C 619.94 551.37 614.451 551.136 608.997 551.171
C 606.669 551.186 604.206 550.907 601.907 551.302
C 601.724 555.105 601.78 558.917 601.749 562.724
C 601.738 564.032 601.335 566.32 601.989 567.456
C 608.933 566.796 616.272 567.355 623.255 567.343
C 623.231 568.633 623.231 570.002 623.337 571.287
C 621.871 572.009 618.7 571.33 617.003 571.332
C 611.993 571.336 606.961 571.233 601.964 571.481
C 601.219 577.079 601.924 582.986 601.816 588.624
C 607.209 588.661 612.611 588.556 618.007 588.558
C 620.471 588.56 623.57 588.043 625.95 588.729
C 625.877 589.938 625.818 591.416 625.996 592.609
C 625.36 592.858 624.2 592.635 623.509 592.631
C 621.506 592.618 619.504 592.576 617.502 592.574
C 610.766 592.57 603.971 592.874 597.247 592.671
C 597.095 577.538 597.393 562.397 597.304 547.263 Z"
opacity="1" fill="rgb(8,61,60)" fill-rule="evenodd" />
<path d="
M 605.942 473.606
C 606.698 465.115 610.908 456.96 617.661 451.701
C 629.15 442.754 647.712 444.229 657.588 454.898
C 660.259 457.783 662.334 461.175 663.754 464.838
C 665.658 469.752 666.303 475.2 665.836 480.44
C 665.002 489.793 660.316 499.011 652.187 504.062
C 636.86 513.587 615.789 507.509 608.471 490.947
C 606.066 485.503 605.419 479.486 605.942 473.606 Z
M 617.474 474.108
C 616.641 481.347 618.693 490.13 624.729 494.747
C 632.529 500.712 644.224 499.019 650.331 491.485
C 652.679 488.587 653.962 484.645 654.415 480.987
C 655.278 474.013 653.68 465.787 648.324 460.824
C 641.985 454.95 631.154 454.62 624.447 460.024
C 620.239 463.415 618.079 468.862 617.474 474.108 Z"
opacity="1" fill="rgb(10,68,66)" fill-rule="evenodd" />
<path d="
M 639.666 547.18
C 641.123 547.072 642.57 546.948 644.023 547.168
C 644.286 557.252 644.219 567.392 644.145 577.495
C 644.125 580.173 644.003 582.843 643.957 585.519
C 643.942 586.408 643.643 587.943 644.127 588.702
C 647.467 588.215 651.132 588.565 654.508 588.576
C 657.974 588.588 661.57 588.261 665.016 588.625
C 665.056 589.862 665.051 591.09 665.07 592.325
C 663.945 593.292 659.933 592.578 658.451 592.572
C 652.203 592.547 645.94 592.47 639.695 592.631
C 638.8 577.559 639.951 562.28 639.666 547.18 Z"
opacity="1" fill="rgb(6,59,58)" fill-rule="evenodd" />
<path d="
M 671.455 567.11
C 671.706 563.945 672.576 560.665 674.091 557.866
C 675.358 555.525 677.024 553.57 679.026 551.832
C 680.993 550.126 683.17 548.832 685.638 547.985
C 700.979 542.717 717.403 554.673 716.083 571.21
C 715.595 577.317 713.235 583.795 708.43 587.854
C 697.052 597.467 679.353 593.472 673.261 579.959
C 671.45 575.944 671.111 571.458 671.455 567.11 Z
M 675.971 567.111
C 675.287 573.655 677.043 580.739 682.247 585.114
C 693.393 594.482 709.897 586.481 711.347 572.58
C 712.109 565.269 709.312 557.214 702.853 553.19
C 691.485 546.106 677.303 554.37 675.971 567.111 Z"
opacity="1" fill="rgb(4,59,58)" fill-rule="evenodd" />
<path d="
M 676.532 457.138
C 676.921 453.561 676.197 449.887 676.804 446.322
C 679.848 446.144 684.653 445.398 687.412 446.948
C 689.488 452.682 689.014 459.263 685.642 464.348
C 683.576 467.464 680.944 469.645 677.075 469.347
C 674.713 465.404 680.606 463.613 681.36 459.981
C 681.494 459.335 681.825 458.358 681.524 457.731
C 679.921 457.855 678.325 457.89 676.724 457.752
C 676.449 457.475 676.557 457.66 676.532 457.138 Z"
opacity="1" fill="rgb(11,67,63)" fill-rule="evenodd" />
<path d="
M 701.908 446.919
C 704.469 446.843 707.027 446.825 709.591 446.824
C 710.599 446.823 711.945 446.623 712.885 446.977
C 712.362 463.83 712.475 480.978 713.049 497.82
C 719.26 497.236 725.766 497.747 732.006 497.765
C 733.444 497.769 734.884 497.796 736.321 497.767
C 736.828 497.758 738.032 497.575 738.434 497.89
C 738.135 501.038 738.091 504.682 738.344 507.834
C 729.628 507.339 720.735 507.861 712.001 507.844
C 709.666 507.839 707.33 507.812 704.995 507.817
C 703.971 507.82 702.604 508.111 701.643 507.81
C 700.836 487.651 701.93 467.386 701.571 447.214
C 701.684 447.116 701.796 447.018 701.908 446.919 Z"
opacity="1" fill="rgb(13,70,68)" fill-rule="evenodd" />
<path d="
M 729.665 547.202
C 733.557 547.131 737.45 547.263 741.346 547.268
C 745.593 547.272 749.666 547.087 753.533 549.105
C 761.559 553.294 763.028 565.94 755.392 571.365
C 750.767 574.651 744.86 573.894 739.507 573.909
C 737.833 573.913 735.729 573.613 734.13 574.128
C 733.483 578.701 733.642 584.036 734.055 588.633
C 734.173 589.941 733.699 591.341 734.164 592.632
C 732.93 592.316 731.102 592.483 729.805 592.506
C 729.362 591.059 729.634 589.276 729.637 587.772
C 729.646 584.683 729.642 581.594 729.624 578.506
C 729.56 568.113 729.127 557.574 729.665 547.202 Z
M 734.041 552.117
C 733.354 557.896 734.244 564.042 734.136 569.867
C 736.284 570.66 740.03 569.948 742.357 569.958
C 744.764 569.969 747.446 570.368 749.747 569.543
C 756.207 567.227 757.969 557.998 752.714 553.429
C 749.438 550.582 745.118 551.234 741.114 551.214
C 739.368 551.205 735.396 550.488 734.095 551.691
C 734.077 551.833 734.059 551.975 734.041 552.117 Z"
opacity="1" fill="rgb(9,63,61)" fill-rule="evenodd" />
<path d="
M 748.29 446.813
C 761.529 446.486 774.845 447.291 788.073 446.715
C 788.355 450.006 788.138 453.49 788.053 456.758
C 785.566 457.207 782.537 456.729 779.998 456.723
C 773.282 456.707 766.468 456.387 759.765 456.811
C 758.947 461.624 759.852 466.896 759.63 471.772
C 761.488 472.502 764.965 471.793 767.003 471.796
C 772.921 471.804 778.887 472.024 784.799 471.8
C 785.333 474.794 784.714 478.159 784.835 481.197
C 778.646 480.796 772.213 481.256 765.999 481.279
C 764.59 481.284 760.604 480.677 759.696 481.792
C 759.914 487.04 760.026 492.578 759.699 497.821
C 760.762 498.463 764.181 497.835 765.502 497.836
C 770.836 497.84 776.17 497.865 781.505 497.876
C 783.216 497.88 784.931 497.842 786.643 497.871
C 787.139 497.879 787.954 497.737 788.305 498.088
C 788.446 501.339 788.137 504.618 788.328 507.862
C 779.035 507.052 769.333 507.836 760.001 507.843
C 756.452 507.846 751.968 508.562 748.535 507.748
C 747.862 499.589 748.337 491.196 748.312 483.004
C 748.275 470.955 747.961 458.858 748.29 446.813 Z"
opacity="1" fill="rgb(13,71,68)" fill-rule="evenodd" />
<path d="
M 772.994 548.104
C 772.989 547.616 772.971 547.918 773.134 547.206
C 774.608 547.148 777.17 546.574 778.45 547.387
C 782.678 559.256 789.556 570.114 794.289 581.772
C 794.679 581.801 795.111 580.033 795.296 579.669
C 796.348 577.603 797.251 575.383 798.201 573.262
C 800.91 567.218 803.89 561.298 806.584 555.244
C 807.644 552.865 808.524 548.997 810.301 547.116
C 812.105 547.129 813.945 547.129 815.749 547.054
C 815.275 557.317 815.709 567.717 815.694 577.995
C 815.689 581.328 815.663 584.661 815.677 587.994
C 815.683 589.384 815.374 591.277 815.75 592.608
C 814.301 592.603 812.867 592.455 811.41 592.488
C 810.469 590.733 811.162 587.003 811.171 585.002
C 811.199 579.002 811.171 573.003 811.153 567.003
C 811.146 564.502 811.19 561.994 811.145 559.494
C 811.134 558.859 811.163 555.357 810.886 555.647
C 807.624 562.844 804.311 570.029 800.929 577.18
C 799.262 580.704 797.259 584.117 795.816 587.737
C 794.989 588.159 793.779 587.974 792.868 588.02
C 792.366 587.772 791.997 586.374 791.728 585.843
C 790.682 583.78 789.646 581.7 788.672 579.602
C 786.099 574.056 783.456 568.535 780.918 562.975
C 779.831 560.594 779.045 557.292 777.358 555.327
C 777.108 562.019 777.446 568.803 777.466 575.505
C 777.482 581.129 777.144 586.861 777.438 592.47
C 775.916 592.486 774.371 592.439 772.861 592.557
C 773.436 585.257 773.172 577.821 773.139 570.502
C 773.107 563.048 773.298 555.55 772.994 548.104 Z"
opacity="1" fill="rgb(8,64,60)" fill-rule="evenodd" />
<path d="
M 795.875 506.513
C 801.302 493.302 806.28 479.717 810.992 466.231
C 812.291 462.513 813.684 458.825 814.936 455.09
C 815.834 452.412 816.628 449.477 818.01 447.012
C 820.937 446.698 823.936 446.851 826.876 446.857
C 828.03 446.859 829.828 446.498 830.878 446.991
C 832.053 451.274 834.128 455.503 835.649 459.69
C 839.568 470.474 843.692 481.179 847.569 491.976
C 848.928 495.762 850.36 499.576 851.862 503.308
C 852.38 504.596 853.609 506.499 853.529 507.873
C 849.578 507.799 845.473 507.603 841.536 507.918
C 839.307 504.106 838.587 499 836.93 494.882
C 835.558 494.003 831.681 494.729 829.998 494.726
C 824.142 494.716 818.278 494.817 812.425 494.734
C 810.258 497.272 809.603 501.95 808.426 505.053
C 808.132 505.827 808.015 507.191 807.45 507.788
C 804.819 507.934 802.131 507.733 799.494 507.724
C 798.186 507.72 796.769 507.958 795.509 507.586
C 795.788 506.788 795.668 507.146 795.875 506.513 Z
M 815.484 484.592
C 815.404 484.826 815.323 485.061 815.242 485.295
C 816.537 485.839 819.067 485.392 820.504 485.382
C 824.686 485.352 829.706 484.599 833.803 485.382
C 830.591 476.38 827.483 467.326 824.262 458.327
C 822.01 467.169 818.65 476.026 815.484 484.592 Z"
opacity="1" fill="rgb(12,68,66)" fill-rule="evenodd" />
<path d="
M 832.197 547.219
C 841.363 547.285 850.96 548.061 860.087 547.177
C 860.708 548.267 860.252 550.136 860.357 551.355
C 856.8 551.005 853.073 551.257 849.499 551.273
C 845.289 551.293 841.02 551.108 836.825 551.431
C 836.324 556.753 836.81 562.264 836.717 567.607
C 843.605 566.923 850.938 567.48 857.865 567.544
C 858.18 568.686 858.181 570.26 858.057 571.451
C 851.064 571.082 843.815 571.199 836.824 571.498
C 836.295 572.935 836.7 575.226 836.706 576.759
C 836.72 580.751 836.751 584.744 836.708 588.734
C 842.052 587.845 848.093 588.579 853.508 588.572
C 855.567 588.569 858.631 587.984 860.548 588.746
C 860.413 589.932 860.345 591.325 860.512 592.511
C 860.217 592.858 858.962 592.61 858.505 592.611
C 856.837 592.613 855.169 592.585 853.501 592.581
C 846.429 592.564 839.344 592.516 832.275 592.638
C 832.041 583.102 832.25 573.54 832.189 564
C 832.155 558.553 831.488 552.607 832.197 547.219 Z"
opacity="1" fill="rgb(8,62,61)" fill-rule="evenodd" />
<path d="
M 863.38 448.114
C 863.474 447.451 863.448 447.854 863.361 446.901
C 867.209 446.173 871.591 446.73 875.505 446.73
C 884.52 446.731 894.423 445.585 902.089 451.282
C 910.583 457.594 910.603 471.726 903.663 479.149
C 901.601 481.354 898.801 482.77 895.986 483.752
C 900.696 491.772 904.79 500.274 910.047 507.955
C 909.224 508.228 907.888 507.895 906.998 507.906
C 904.662 507.934 902.332 507.912 899.996 507.854
C 899.089 507.832 898.084 508.026 897.227 507.702
C 892.316 500.607 888.797 492.379 884.57 484.87
C 881.308 484.71 878.038 484.747 874.776 484.841
C 874.718 490.224 874.763 495.613 874.771 500.998
C 874.773 502.958 874.223 505.943 874.781 507.787
C 871.032 507.74 867.195 507.544 863.458 507.879
C 862.875 507.018 863.358 504.577 863.359 503.499
C 863.364 499.665 863.368 495.831 863.369 491.998
C 863.37 482.498 863.38 472.999 863.369 463.499
C 863.364 458.394 863.089 453.211 863.38 448.114 Z
M 874.784 456.834
C 874.635 461.38 874.743 465.949 874.766 470.499
C 874.773 471.726 874.273 474.418 874.887 475.43
C 880.401 475.047 887.834 476.828 892.85 474.07
C 898.359 471.041 899.116 461.644 893.488 458.261
C 891.216 456.896 888.49 456.829 885.913 456.777
C 882.201 456.702 878.493 456.667 874.784 456.834 Z"
opacity="1" fill="rgb(12,69,66)" fill-rule="evenodd" />
<path d="
M 873.513 548.109
C 873.572 547.577 873.498 547.881 873.844 547.232
C 875.098 547.235 876.365 547.09 877.615 547.236
C 884.889 556.657 891.878 566.495 898.709 576.255
C 900.851 579.315 902.793 582.634 905.11 585.555
C 905.144 576.536 905.029 567.493 905.058 558.463
C 905.065 556.039 905.057 553.616 905.044 551.193
C 905.037 549.946 904.825 548.449 905.295 547.296
C 906.276 547.261 908.613 546.786 909.386 547.449
C 909.209 558.201 909.082 569.174 909.528 579.923
C 909.654 582.964 909.608 585.999 909.603 589.043
C 909.602 589.809 909.81 591.961 909.432 592.537
C 907.945 592.561 906.438 592.757 904.959 592.525
C 902.779 590.852 901.305 587.268 899.691 585.043
C 895.291 578.978 891.042 572.798 886.661 566.716
C 884.557 563.795 882.576 560.766 880.414 557.889
C 880.006 557.347 878.774 554.976 878.268 554.797
C 878.058 554.722 878.062 555.192 877.958 555.389
C 877.77 562.968 878.069 570.543 878.071 578.12
C 878.073 582.86 877.616 587.706 877.936 592.443
C 876.615 592.366 875.255 592.418 873.931 592.463
C 873.318 591.652 873.636 590.005 873.635 589
C 873.63 586.168 873.619 583.335 873.613 580.503
C 873.589 569.745 873.975 558.842 873.513 548.109 Z"
opacity="1" fill="rgb(9,66,64)" fill-rule="evenodd" />
<path d="
M 913.567 446.848
C 916.389 446.712 919.232 446.805 922.057 446.805
C 922.943 446.805 924.699 446.492 925.358 447.051
C 928.814 454.404 932.774 461.687 936.65 468.83
C 937.575 470.534 938.551 472.367 939.199 474.195
C 939.349 474.621 939.407 475.846 939.791 476.045
C 940.283 475.673 940.472 474.485 940.741 473.904
C 941.665 471.908 942.605 469.924 943.584 467.955
C 947.024 461.036 950.2 453.304 954.548 446.924
C 958.413 446.462 963.009 446.434 966.873 446.893
C 965.657 450.03 963.355 452.999 961.716 455.949
C 958.344 462.021 955.135 468.184 951.666 474.203
C 950.345 476.495 949.078 478.818 947.736 481.099
C 947.055 482.256 946.028 483.605 945.702 484.914
C 945.131 487.212 945.553 490.197 945.58 492.561
C 945.638 497.649 945.776 502.755 945.633 507.84
C 942.922 507.864 940.204 507.774 937.491 507.778
C 936.523 507.779 934.99 508.143 934.169 507.646
C 934.126 502.435 934.178 497.219 934.17 492.007
C 934.167 489.762 934.559 487.069 934.05 484.874
C 933.74 483.539 932.637 482.262 931.967 481.082
C 930.416 478.353 928.847 475.631 927.275 472.915
C 922.358 464.42 917.704 455.771 912.902 447.214
C 913.124 447.092 913.345 446.97 913.567 446.848 Z"
opacity="1" fill="rgb(12,67,64)" fill-rule="evenodd" />
<path d="
M 921.262 547.323
C 932.551 547.149 943.876 547.592 955.164 547.249
C 955.36 548.601 955.173 550.014 955.179 551.374
C 950.394 551.055 945.334 551.175 940.551 551.455
C 939.448 556.079 940.35 561.76 940.36 566.501
C 940.372 572.002 940.409 577.503 940.4 583.004
C 940.395 586.056 940.129 589.303 940.46 592.331
C 939.534 592.969 936.981 592.513 935.872 592.578
C 936.398 578.922 935.324 565.193 935.856 551.546
C 934.804 550.914 932.718 551.311 931.503 551.322
C 928.155 551.354 924.784 551.24 921.441 551.432
C 920.755 550.761 921.233 548.269 921.262 547.323 Z"
opacity="1" fill="rgb(9,63,60)" fill-rule="evenodd" />

</svg>